<?xml version="1.0" encoding="UTF-8" standalone="no"?>
<svg
   viewBox="0 0 414.99999 415.24"
   version="1.1"
   id="svg33"
   sodipodi:docname="prefect-icon.svg"
   inkscape:version="1.1.1 (3bf5ae0d25, 2021-09-20)"
   width="415"
   height="415.23999"
   xmlns:inkscape="http://www.inkscape.org/namespaces/inkscape"
   xmlns:sodipodi="http://sodipodi.sourceforge.net/DTD/sodipodi-0.dtd"
   xmlns="http://www.w3.org/2000/svg"
   xmlns:svg="http://www.w3.org/2000/svg"
   xmlns:rdf="http://www.w3.org/1999/02/22-rdf-syntax-ns#"
   xmlns:cc="http://creativecommons.org/ns#"
   xmlns:dc="http://purl.org/dc/elements/1.1/">
  <sodipodi:namedview
     id="namedview35"
     pagecolor="#ffffff"
     bordercolor="#666666"
     borderopacity="1.0"
     inkscape:pageshadow="2"
     inkscape:pageopacity="0.0"
     inkscape:pagecheckerboard="0"
     showgrid="false"
     inkscape:zoom="0.65081659"
     inkscape:cx="673.76894"
     inkscape:cy="208.19998"
     inkscape:window-width="2560"
     inkscape:window-height="1377"
     inkscape:window-x="-8"
     inkscape:window-y="-8"
     inkscape:window-maximized="1"
     inkscape:current-layer="svg33"
     width="1625.65px" />
  <defs
     id="defs17">
    <linearGradient
       id="a"
       x1="5925.2798"
       y1="534.25"
       x2="5924.8901"
       y2="533.84998"
       gradientTransform="matrix(231.75,0,0,235.91,-1372961.4,-125777.07)"
       gradientUnits="userSpaceOnUse">
      <stop
         offset="0"
         stop-color="#b4c0c9"
         id="stop2" />
      <stop
         offset="1"
         stop-color="#94a5b2"
         id="stop4" />
    </linearGradient>
    <linearGradient
       id="b"
       x1="6618.3799"
       y1="304.85999"
       x2="6618.9702"
       y2="305.34"
       gradientTransform="matrix(231.6,0,0,513.83,-1527896.9,-155305.48)"
       gradientUnits="userSpaceOnUse">
      <stop
         offset="0"
         stop-color="#647989"
         id="stop7" />
      <stop
         offset="1"
         stop-color="#2f383e"
         id="stop9" />
    </linearGradient>
    <linearGradient
       id="c"
       x1="6622.1299"
       y1="304.28"
       x2="6622.4502"
       y2="304.67999"
       gradientTransform="matrix(454.75,0,0,346.97,-3006419.7,-104394.62)"
       gradientUnits="userSpaceOnUse">
      <stop
         offset="0"
         stop-color="#2edaff"
         id="stop12" />
      <stop
         offset="1"
         stop-color="#004bff"
         id="stop14" />
    </linearGradient>
  </defs>
  <title
     id="title19">prefect-logo-full-gradient</title>
  <g
     id="g957"
     transform="translate(78.401946,-0.0037966)">
    <polygon
       points="129.02,260.32 258.2,193.49 129.02,128.77 "
       style="fill:url(#a);fill-rule:evenodd"
       id="polygon23" />
    <polygon
       points="129.02,260.32 145.47,251.8 129.02,154.01 "
       style="fill:#0d3958;fill-opacity:0.2;fill-rule:evenodd"
       id="polygon25" />
    <polygon
       points="129.02,143.12 241.64,185.13 129.02,128.77 "
       style="fill:#0d3958;fill-opacity:0.2;fill-rule:evenodd"
       id="polygon27" />
    <path
       d="m 4914.57,1570.06 c 0.27,-0.16 118.66,-57.55 118.76,-57.61 1.62,-1 2.54,-1.24 2.59,-4.09 0,-0.27 -0.05,-223.41 -0.05,-223.41 -50.16,25.08 -120.76,60.3 -126.86,63.54 -1.94,1.08 -2.21,2 -2.21,3.4 v 212.4 c -0.05,4.8 0.27,9.54 7.77,5.77 z"
       transform="translate(-4906.8,-1156.18)"
       style="fill:url(#b);fill-rule:evenodd"
       id="path29" />
    <path
       d="m 5165,1223.09 v 126.53 c 0,0 -241,-120.55 -249.34,-124.86 -5.56,-2.91 -5.56,-5.67 0,-8.79 5.12,-2.86 102.91,-51.62 117.9,-59.12 1.94,-0.86 2.54,-0.86 4.26,-0.16 l 124.76,62.51 c 1.78,0.87 2.32,1.73 2.42,3.89 z"
       transform="translate(-4906.8,-1156.18)"
       style="fill:url(#c);fill-rule:evenodd"
       id="path31" />
  </g>
  <metadata
     id="metadata950">
    <rdf:RDF>
      <cc:Work
         rdf:about="">
        <dc:title>prefect-logo-full-gradient</dc:title>
      </cc:Work>
    </rdf:RDF>
  </metadata>
</svg>
