<?xml version="1.0" encoding="iso-8859-1"?>
<!-- Generator: Adobe Illustrator 18.1.1, SVG Export Plug-In . SVG Version: 6.00 Build 0)  -->
<svg version="1.1" id="Capa_1" xmlns="http://www.w3.org/2000/svg" xmlns:xlink="http://www.w3.org/1999/xlink" x="0px" y="0px"
	 viewBox="0 0 270.06 270.06" style="enable-background:new 0 0 270.06 270.06;" xml:space="preserve">
<path color-rendering="auto" image-rendering="auto" shape-rendering="auto" color-interpolation="sRGB" d="M264.898,0.007
	c-0.181,0.006-0.362,0.023-0.541,0.049H84.996c-1.326,0-2.598,0.527-3.535,1.465l-80,80C0.525,82.459-0.001,83.73,0,85.056v180
	c0,2.761,2.239,5,5,5h180c1.326,0,2.598-0.527,3.535-1.465l80-80c0.938-0.938,1.465-2.209,1.465-3.535V5.819
	c0.14-0.893,0.035-1.807-0.303-2.645c-0.016-0.045-0.033-0.09-0.051-0.135c-0.808-1.89-2.69-3.093-4.744-3.033L264.898,0.007z
	 M87.066,10.056h165.859l-70,70H17.066L87.066,10.056z M259.996,17.126v165.859l-70,70V87.126L259.996,17.126L259.996,17.126z
	 M84.92,19.985c-2.759,0.042-4.963,2.311-4.924,5.07v40c-0.039,2.761,2.168,5.032,4.929,5.071s5.032-2.168,5.071-4.929
	c0.001-0.047,0.001-0.094,0-0.141v-40c0.039-2.761-2.168-5.031-4.93-5.07C85.018,19.984,84.969,19.984,84.92,19.985z M9.996,90.056
	h170v170h-170V90.056L9.996,90.056z M84.92,99.985c-2.759,0.042-4.963,2.311-4.924,5.07v30c-0.039,2.761,2.168,5.032,4.929,5.071
	s5.032-2.168,5.071-4.929c0.001-0.047,0.001-0.094,0-0.141v-30c0.039-2.761-2.168-5.031-4.93-5.07
	C85.018,99.984,84.969,99.984,84.92,99.985z M84.92,159.985c-2.759,0.042-4.963,2.311-4.924,5.07v17.93L61.461,201.52
	c-1.992,1.913-2.057,5.078-0.144,7.07c1.913,1.992,5.078,2.057,7.07,0.144c0.049-0.047,0.097-0.095,0.144-0.144l18.535-18.535h17.93
	c2.761,0.039,5.032-2.168,5.071-4.929s-2.168-5.032-4.929-5.071c-0.047-0.001-0.094-0.001-0.141,0h-15v-15
	c0.039-2.761-2.168-5.031-4.93-5.07C85.018,159.984,84.969,159.984,84.92,159.985z M134.996,180.055
	c-2.761-0.039-5.032,2.168-5.071,4.929c-0.039,2.761,2.168,5.032,4.929,5.071c0.047,0.001,0.094,0.001,0.141,0h30
	c2.761,0.039,5.032-2.168,5.071-4.929c0.039-2.761-2.168-5.032-4.929-5.071c-0.047-0.001-0.094-0.001-0.141,0H134.996z
	 M204.996,180.055c-2.761-0.039-5.032,2.168-5.071,4.929c-0.039,2.761,2.168,5.032,4.929,5.071c0.047,0.001,0.094,0.001,0.141,0h40
	c2.761,0.039,5.032-2.168,5.071-4.929s-2.168-5.032-4.929-5.071c-0.047-0.001-0.094-0.001-0.141,0H204.996z M44.898,220.007
	c-1.299,0.039-2.532,0.582-3.438,1.514l-20,20c-1.992,1.913-2.057,5.078-0.144,7.07c1.913,1.992,5.078,2.057,7.07,0.144
	c0.049-0.047,0.097-0.095,0.144-0.144l20-20c1.98-1.925,2.025-5.091,0.1-7.071C47.654,220.514,46.3,219.965,44.898,220.007z"/>
<g>
</g>
<g>
</g>
<g>
</g>
<g>
</g>
<g>
</g>
<g>
</g>
<g>
</g>
<g>
</g>
<g>
</g>
<g>
</g>
<g>
</g>
<g>
</g>
<g>
</g>
<g>
</g>
<g>
</g>
</svg>
