<?xml version="1.0" encoding="UTF-8" standalone="no"?>
<svg
   xmlns:dc="http://purl.org/dc/elements/1.1/"
   xmlns:cc="http://creativecommons.org/ns#"
   xmlns:rdf="http://www.w3.org/1999/02/22-rdf-syntax-ns#"
   xmlns:svg="http://www.w3.org/2000/svg"
   xmlns="http://www.w3.org/2000/svg"
   xmlns:sodipodi="http://sodipodi.sourceforge.net/DTD/sodipodi-0.dtd"
   xmlns:inkscape="http://www.inkscape.org/namespaces/inkscape"
   width="125mm"
   height="25mm"
   viewBox="0 0 125 25"
   version="1.1"
   id="svg905"
   inkscape:version="1.0.2 (e86c870879, 2021-01-15, custom)"
   sodipodi:docname="Simmate.svg">
  <defs
     id="defs899" />
  <sodipodi:namedview
     id="base"
     pagecolor="#ffffff"
     bordercolor="#666666"
     borderopacity="1.0"
     inkscape:pageopacity="0.0"
     inkscape:pageshadow="2"
     inkscape:zoom="1.4"
     inkscape:cx="266.68246"
     inkscape:cy="150.71647"
     inkscape:document-units="mm"
     inkscape:current-layer="layer1"
     inkscape:document-rotation="0"
     showgrid="false"
     inkscape:window-width="2560"
     inkscape:window-height="1377"
     inkscape:window-x="-8"
     inkscape:window-y="-8"
     inkscape:window-maximized="1" />
  <metadata
     id="metadata902">
    <rdf:RDF>
      <cc:Work
         rdf:about="">
        <dc:format>image/svg+xml</dc:format>
        <dc:type
           rdf:resource="http://purl.org/dc/dcmitype/StillImage" />
        <dc:title></dc:title>
      </cc:Work>
    </rdf:RDF>
  </metadata>
  <g
     inkscape:label="Layer 1"
     inkscape:groupmode="layer"
     id="layer1">
    <g
       id="g1562"
       transform="translate(-2.9019763,-7.0865764)">
      <text
         xml:space="preserve"
         style="font-style:normal;font-variant:normal;font-weight:bold;font-stretch:normal;font-size:26.2685px;line-height:1.25;font-family:Corbel;-inkscape-font-specification:'Corbel, Bold';font-variant-ligatures:normal;font-variant-caps:normal;font-variant-numeric:normal;font-variant-east-asian:normal;fill:#003144;fill-opacity:1;stroke:none;stroke-width:0.656713"
         x="26.589918"
         y="27.988333"
         id="text148-0-2"><tspan
           sodipodi:role="line"
           id="tspan146-3-0"
           x="26.589918"
           y="27.988333"
           style="font-style:normal;font-variant:normal;font-weight:bold;font-stretch:normal;font-size:26.2685px;font-family:Corbel;-inkscape-font-specification:'Corbel, Bold';font-variant-ligatures:normal;font-variant-caps:normal;font-variant-numeric:normal;font-variant-east-asian:normal;fill:#003144;fill-opacity:1;stroke-width:0.656713">S</tspan></text>
      <path
         id="text148-5-5"
         style="font-style:normal;font-variant:normal;font-weight:bold;font-stretch:normal;font-size:22.3532px;line-height:1.25;font-family:Corbel;-inkscape-font-specification:'Corbel, Bold';font-variant-ligatures:normal;font-variant-caps:normal;font-variant-numeric:normal;font-variant-east-asian:normal;fill:#00aa44;fill-opacity:1;stroke:none;stroke-width:2.11276;stroke-miterlimit:4;stroke-dasharray:none"
         d="m 254.60938,50.796875 v 55.195315 h 10.10546 V 77.982422 c 0,-4.400237 -0.16412,-9.144649 -0.49414,-14.232422 h 0.3711 c 0.46752,1.567584 1.01785,3.326692 1.65039,5.279297 0.63253,1.952605 1.29098,3.877789 1.97851,5.775391 l 11.42774,31.187502 h 6.51758 l 9.35742,-25.539065 10.03711,-29.65625 h -8.54493 l -9.52929,26.400391 c -1.7876,4.977767 -3.28603,9.639141 -4.4961,13.984375 h -0.24804 c -1.40258,-5.032771 -2.90101,-9.734687 -4.4961,-14.107422 L 268.7168,50.796875 Z m 86.33984,0 -21.9043,55.195315 h 10.76563 l 5.40429,-14.066409 h 20.79102 l 5.4043,14.066409 H 372.0957 L 350.18945,50.796875 Z m 29.08203,0 v 8.457031 h 17.82227 v 46.738284 h 10.10546 V 59.253906 h 17.78125 v -8.457031 z m 53.54687,0 v 55.195315 h 37.25 V 97.535156 H 433.68359 V 81.982422 h 22.0293 v -8.457031 h -22.0293 V 59.253906 h 25.66016 v -8.457031 z m -112.37109,0.06055 -10.10742,29.86914 v 25.265625 h 10.10742 z m 34.32227,13.222656 h 0.16406 c 1.9251,5.747809 3.64367,10.573306 5.15625,14.478516 l 1.89844,4.910156 h -14.27344 l 1.89648,-4.910156 c 1.51259,-3.877709 3.2331,-8.703206 5.15821,-14.478516 z"
         transform="scale(0.26458333)" />
      <path
         id="text148-5-5-0"
         style="font-style:normal;font-variant:normal;font-weight:bold;font-stretch:normal;font-size:22.3532px;line-height:1.25;font-family:Corbel;-inkscape-font-specification:'Corbel, Bold';font-variant-ligatures:normal;font-variant-caps:normal;font-variant-numeric:normal;font-variant-east-asian:normal;fill:#003144;fill-opacity:1;stroke:none;stroke-width:2.11211"
         d="M 161.48438,50.525391 V 105.7207 H 171.5918 V 50.525391 Z m 23.30859,0 V 105.7207 h 10.10547 V 77.710938 c 0,-4.400237 -0.16413,-9.144649 -0.49414,-14.232422 h 0.37109 c 0.46753,1.567584 1.01786,3.326692 1.65039,5.279296 0.63254,1.952605 1.29098,3.877789 1.97852,5.775391 l 11.42773,31.187497 h 6.51758 l 11.42773,-31.187497 c 0.0509,-0.140369 0.0998,-0.283158 0.15039,-0.423828 l 2.07032,-6.121094 c 0.51979,-1.620049 1.00882,-3.170674 1.4082,-4.509765 h 0.11719 l 4.38476,-12.953125 h -8.70898 l -9.5293,26.40039 c -1.78759,4.977768 -3.28603,9.639142 -4.49609,13.984375 h -0.24805 c -1.40257,-5.03277 -2.90101,-9.734687 -4.49609,-14.107422 l -9.5293,-26.277343 z m 56.59765,0.546875 -10.10742,29.86914 V 105.7207 h 10.10742 z"
         transform="scale(0.26458333)" />
      <path
         id="path2269"
         style="fill:#00aa44;fill-opacity:1;stroke:#00aa44;stroke-width:0.15942;stroke-linejoin:round;stroke-opacity:1"
         d="M 8.4974681,17.385571 18.806615,11.247103 17.53655,21.308735 Z"
         sodipodi:nodetypes="cccc" />
      <path
         id="path3240"
         style="fill:#007544;fill-opacity:1;stroke:#007544;stroke-width:0.185917;stroke-linejoin:round;stroke-opacity:1"
         d="m 8.1892755,18.22827 6.5983235,9.739665 2.471521,-5.836392 z"
         sodipodi:nodetypes="cccc" />
      <path
         id="path3244"
         style="fill:#003144;fill-opacity:1;stroke:#003144;stroke-width:0.185916;stroke-linejoin:round;stroke-opacity:1"
         d="m 25.035391,22.484408 -9.335348,5.765737 2.414186,-5.829477 z"
         sodipodi:nodetypes="cccc" />
      <path
         id="path3242"
         style="fill:#00666b;fill-opacity:1;stroke:#00666b;stroke-width:0.156324;stroke-linejoin:round;stroke-opacity:1"
         d="M 24.844974,21.635015 19.71311,11.521545 18.402994,21.545032 Z"
         sodipodi:nodetypes="cccc" />
    </g>
  </g>
</svg>
