<?xml version="1.0" encoding="UTF-8" standalone="no"?>
<svg
   id="Layer_1"
   data-name="Layer 1"
   viewBox="0 0 550 225"
   version="1.1"
   sodipodi:docname="dask-logo.svg"
   width="550"
   height="225"
   inkscape:version="1.1 (ce6663b3b7, 2021-05-25)"
   xmlns:inkscape="http://www.inkscape.org/namespaces/inkscape"
   xmlns:sodipodi="http://sodipodi.sourceforge.net/DTD/sodipodi-0.dtd"
   xmlns:xlink="http://www.w3.org/1999/xlink"
   xmlns="http://www.w3.org/2000/svg"
   xmlns:svg="http://www.w3.org/2000/svg"
   xmlns:rdf="http://www.w3.org/1999/02/22-rdf-syntax-ns#"
   xmlns:cc="http://creativecommons.org/ns#"
   xmlns:dc="http://purl.org/dc/elements/1.1/">
  <sodipodi:namedview
     id="namedview34"
     pagecolor="#ffffff"
     bordercolor="#666666"
     borderopacity="1.0"
     inkscape:pageshadow="2"
     inkscape:pageopacity="0.0"
     inkscape:pagecheckerboard="0"
     showgrid="false"
     height="225px"
     inkscape:zoom="1.2163636"
     inkscape:cx="266.77877"
     inkscape:cy="114.6861"
     inkscape:window-width="1920"
     inkscape:window-height="948"
     inkscape:window-x="0"
     inkscape:window-y="27"
     inkscape:window-maximized="1"
     inkscape:current-layer="Layer_1" />
  <defs
     id="defs15">
    <linearGradient
       id="linear-gradient"
       x1="154.55"
       y1="173.33"
       x2="242.36"
       y2="173.33"
       gradientTransform="matrix(1.1796781,0.16390373,-0.16390373,1.1796781,-83.210451,-123.41527)"
       gradientUnits="userSpaceOnUse">
      <stop
         offset="0.01"
         stop-color="#c7422f"
         id="stop2" />
      <stop
         offset="0.37"
         stop-color="#d46e43"
         id="stop4" />
      <stop
         offset="1"
         stop-color="#eeb575"
         id="stop6" />
    </linearGradient>
    <linearGradient
       id="linear-gradient-2"
       x1="181.83"
       y1="171.07001"
       x2="221.39"
       y2="171.07001"
       gradientTransform="rotate(7.91,519.9019,-229.37959)"
       gradientUnits="userSpaceOnUse">
      <stop
         offset="0.21"
         stop-color="#cf603b"
         id="stop9" />
      <stop
         offset="1"
         stop-color="#eeb575"
         id="stop11" />
    </linearGradient>
    <linearGradient
       id="linear-gradient-3"
       x1="107.2"
       y1="175.53"
       x2="204.37"
       y2="175.53"
       xlink:href="#linear-gradient-2"
       gradientTransform="matrix(1.19101,0,0,1.19101,-51.505767,-35.602119)" />
    <linearGradient
       inkscape:collect="always"
       xlink:href="#linear-gradient-2"
       id="linearGradient851"
       gradientUnits="userSpaceOnUse"
       gradientTransform="matrix(1.1796781,0.16390373,-0.16390373,1.1796781,-83.210451,-123.41527)"
       x1="181.83"
       y1="171.07001"
       x2="221.39"
       y2="171.07001" />
  </defs>
  <title
     id="title17">Dask</title>
  <path
     d="m 203.76339,66.586534 h 42.99545 c 29.45368,0.333477 36.0757,25.439966 36.0757,47.640396 0,47.09253 -24.23705,46.61613 -36.0757,46.61613 h -42.99545 z m 41.37568,76.843956 c 15.41167,0 18.57975,-13.88718 18.57975,-29.23929 0,-21.59302 -7.51525,-30.22783 -18.57975,-30.22783 h -22.27188 v 59.46712 z"
     style="fill:#101011;stroke-width:1.19101"
     id="path19" />
  <path
     d="m 319.73202,66.920011 h 21.98605 l 32.37164,93.899219 h -20.24717 l -7.70583,-21.34289 h -32.82423 l -8.24179,21.29525 h -20.24716 z m 21.65256,56.382419 -10.82628,-32.00244 -11.9101,32.00244 h 22.62919 z"
     style="fill:#101011;stroke-width:1.19101"
     id="path21" />
  <path
     d="m 382.86746,91.33572 c 0,-13.910997 5.59776,-24.90402 24.46334,-24.90402 8.56336,0 33.24109,1.345842 45.54421,3.573029 V 84.011 c 0,0 -25.59479,-0.9528 -42.66197,-0.9528 -6.49099,0 -8.22987,4.10898 -8.22987,8.56335 v 7.01506 c 0,7.22944 3.18,7.37235 8.22987,7.37235 h 24.54673 c 16.67413,0 22.56963,10.62381 22.56963,23.8202 v 9.23033 c 0,18.99661 -11.37415,23.39144 -22.56963,23.39144 -7.83686,0 -41.87592,-0.95283 -48.27165,-3.85888 v -13.66089 c 0,0 27.95301,0.72652 44.23411,0.72652 5.83595,0 7.49147,-6.93168 7.49147,-6.93168 v -8.33706 c 0,-4.76405 -1.85799,-7.03886 -7.49147,-7.03886 h -23.97502 c -17.26965,0 -23.87975,-7.78921 -23.87975,-23.59392 v -8.45617 z"
     style="fill:#101011;stroke-width:1.19101"
     id="path23" />
  <path
     d="m 471.16893,66.920011 h 18.53211 v 39.529629 h 10.29034 L 527.08684,66.920011 H 549.323 l -32.57412,47.771419 32.57412,46.29455 h -22.22425 l -27.39322,-37.71929 h -9.96876 v 37.71929 H 471.16893 V 66.896194 Z"
     style="fill:#101011;stroke-width:1.19101"
     id="path25" />
  <path
     d="m 177.65645,95.71862 q 0.20247,-2.17953 0.3454,-4.35908 A 142.38524,142.38524 0 0 0 163.42389,18.803215 l -8.1227,-16.293016 -3.76357,17.865148 A 129.82008,129.82008 0 0 1 75.074763,113.02401 l -5.585833,2.38203 2.119997,5.69302 a 128.50998,128.50998 0 0 1 7.515276,57.52578 130.34413,130.34413 0 0 1 -6.764939,30.82334 l -4.335276,12.20784 12.24358,-4.02561 A 142.57579,142.57579 0 0 0 177.65645,95.71862 Z m -83.049121,102.1172 -6.526731,3.32292 1.429208,-7.14606 a 143.33804,143.33804 0 0 0 2.084273,-14.29211 141.57535,141.57535 0 0 0 -5.383367,-54.65545 l -0.869438,-2.87032 2.679773,-1.33394 A 143.20703,143.20703 0 0 0 155.01536,50.412618 l 4.18044,-9.528079 2.48921,10.099764 a 128.18839,128.18839 0 0 1 3.20382,43.519507 129.20075,129.20075 0 0 1 -70.281501,103.33201 z"
     style="fill:url(#linear-gradient);stroke-width:1.19101"
     id="path27" />
  <path
     d="M 147.28571,102.72178 C 152.20456,91.85976 157.314,64.883391 156.99243,62.870579 A 150.06724,150.06724 0 0 1 139.05582,89.53729 c -1.01237,2.66786 -2.07235,5.32382 -3.26336,7.94404 v 0 a 129.66524,129.66524 0 0 1 -37.659743,48.20016 q 1.012368,7.3128 1.274379,14.72089 a 142.20659,142.20659 0 0 0 47.878614,-57.6806 z"
     style="fill:url(#linearGradient851);stroke-width:1.19101"
     id="path29" />
  <path
     d="m 72.454547,161.4862 a 129.82008,129.82008 0 0 1 -36.766478,10.92157 l -7.241341,1.02425 3.668312,-6.32424 a 143.80254,143.80254 0 0 0 6.598194,-12.79146 141.48006,141.48006 0 0 0 12.648523,-53.44061 l 0.107194,-2.98943 2.965617,-0.39304 A 143.13557,143.13557 0 0 0 118.7491,71.922257 122.42391,122.42391 0 0 0 140.92571,32.166347 129.82008,129.82008 0 0 1 44.644463,85.76179 l -6.05033,0.41685 0.154831,6.07415 a 128.53378,128.53378 0 0 1 -11.576615,56.8469 130.33221,130.33221 0 0 1 -16.471668,27.00021 l -7.9916758,10.11167 12.8867278,0.16673 a 142.02793,142.02793 0 0 0 56.596789,-11.02874 124.11514,124.11514 0 0 0 0.262025,-13.86336 z"
     style="fill:url(#linear-gradient-3);stroke-width:1.19101"
     id="path31" />
  <metadata
     id="metadata853">
    <rdf:RDF>
      <cc:Work
         rdf:about="">
        <dc:title>Dask</dc:title>
      </cc:Work>
    </rdf:RDF>
  </metadata>
</svg>
