<?xml version="1.0" encoding="UTF-8" standalone="no"?>
<svg
   width="125mm"
   height="25mm"
   viewBox="0 0 125 25"
   version="1.1"
   id="svg905"
   inkscape:version="1.1.2 (76b9e6a115, 2022-02-25)"
   sodipodi:docname="simmate-logo-dark.svg"
   xmlns:inkscape="http://www.inkscape.org/namespaces/inkscape"
   xmlns:sodipodi="http://sodipodi.sourceforge.net/DTD/sodipodi-0.dtd"
   xmlns="http://www.w3.org/2000/svg"
   xmlns:svg="http://www.w3.org/2000/svg"
   xmlns:rdf="http://www.w3.org/1999/02/22-rdf-syntax-ns#"
   xmlns:cc="http://creativecommons.org/ns#"
   xmlns:dc="http://purl.org/dc/elements/1.1/">
  <defs
     id="defs899" />
  <sodipodi:namedview
     id="base"
     pagecolor="#ffffff"
     bordercolor="#666666"
     borderopacity="1.0"
     inkscape:pageopacity="0.0"
     inkscape:pageshadow="2"
     inkscape:zoom="1.979899"
     inkscape:cx="276.27672"
     inkscape:cy="-67.932759"
     inkscape:document-units="mm"
     inkscape:current-layer="g1562"
     inkscape:document-rotation="0"
     showgrid="false"
     inkscape:window-width="1920"
     inkscape:window-height="948"
     inkscape:window-x="0"
     inkscape:window-y="27"
     inkscape:window-maximized="1"
     inkscape:pagecheckerboard="0" />
  <metadata
     id="metadata902">
    <rdf:RDF>
      <cc:Work
         rdf:about="">
        <dc:format>image/svg+xml</dc:format>
        <dc:type
           rdf:resource="http://purl.org/dc/dcmitype/StillImage" />
        <dc:title />
      </cc:Work>
    </rdf:RDF>
  </metadata>
  <g
     inkscape:label="Layer 1"
     inkscape:groupmode="layer"
     id="layer1">
    <g
       id="g1562"
       transform="translate(-2.9019763,-7.0865764)">
      <g
         aria-label="S"
         id="text148-0-2"
         style="font-style:normal;font-variant:normal;font-weight:bold;font-stretch:normal;font-size:26.2685px;line-height:1.25;font-family:Corbel;-inkscape-font-specification:'Corbel, Bold';font-variant-ligatures:normal;font-variant-caps:normal;font-variant-numeric:normal;font-variant-east-asian:normal;fill:#008f97;fill-opacity:1;stroke:none;stroke-width:0.656713">
        <path
           d="m 37.081926,23.062989 q 0,-0.654147 -0.32066,-1.051766 -0.320661,-0.410445 -0.872196,-0.666974 -0.551536,-0.256528 -1.244163,-0.410445 -0.6798,-0.166743 -1.436558,-0.32066 -1.000461,-0.218049 -1.911136,-0.513057 -0.910676,-0.307834 -1.603302,-0.833717 -0.692627,-0.538709 -1.103072,-1.3596 -0.410445,-0.820891 -0.410445,-2.052227 0,-1.3596 0.474577,-2.36006 0.474577,-1.013287 1.282642,-1.667434 0.82089,-0.666974 1.911136,-0.987634 1.103071,-0.333487 2.475498,-0.333487 1.372426,0 2.757679,0.269355 1.385253,0.269355 2.385714,0.692626 v 2.693548 q -1.333948,-0.525883 -2.565284,-0.756759 -1.218509,-0.243702 -2.295928,-0.243702 -1.551996,0 -2.39854,0.564362 -0.833717,0.564363 -0.833717,1.693087 0,0.654148 0.269355,1.077419 0.282181,0.423272 0.756758,0.705453 0.474578,0.269355 1.090246,0.436098 0.615668,0.166744 1.308294,0.307834 1.090246,0.230876 2.07788,0.53871 1.00046,0.295007 1.770045,0.833717 0.769585,0.538709 1.218509,1.410905 0.448925,0.85937 0.448925,2.206144 0,1.385253 -0.513057,2.39854 -0.513056,1.013287 -1.462211,1.68026 -0.936328,0.654147 -2.283102,0.974808 -1.346774,0.32066 -2.950076,0.32066 -1.398079,0 -2.757679,-0.282181 -1.346774,-0.269355 -2.244623,-0.769585 v -2.655068 q 1.269815,0.551536 2.475498,0.808064 1.205683,0.243702 2.488325,0.243702 0.743932,0 1.462211,-0.115438 0.71828,-0.128264 1.282642,-0.423271 0.577189,-0.295008 0.923502,-0.795238 0.346313,-0.513057 0.346313,-1.256989 z"
           style="font-style:normal;font-variant:normal;font-weight:bold;font-stretch:normal;font-size:26.2685px;font-family:Corbel;-inkscape-font-specification:'Corbel, Bold';font-variant-ligatures:normal;font-variant-caps:normal;font-variant-numeric:normal;font-variant-east-asian:normal;fill:#008f97;fill-opacity:1;stroke-width:0.656713"
           id="path839" />
      </g>
      <path
         id="text148-5-5"
         style="font-style:normal;font-variant:normal;font-weight:bold;font-stretch:normal;font-size:22.3532px;line-height:1.25;font-family:Corbel;-inkscape-font-specification:'Corbel, Bold';font-variant-ligatures:normal;font-variant-caps:normal;font-variant-numeric:normal;font-variant-east-asian:normal;fill:#00aa44;fill-opacity:1;stroke:none;stroke-width:2.11276;stroke-miterlimit:4;stroke-dasharray:none"
         d="m 254.60938,50.796875 v 55.195315 h 10.10546 V 77.982422 c 0,-4.400237 -0.16412,-9.144649 -0.49414,-14.232422 h 0.3711 c 0.46752,1.567584 1.01785,3.326692 1.65039,5.279297 0.63253,1.952605 1.29098,3.877789 1.97851,5.775391 l 11.42774,31.187502 h 6.51758 l 9.35742,-25.539065 10.03711,-29.65625 h -8.54493 l -9.52929,26.400391 c -1.7876,4.977767 -3.28603,9.639141 -4.4961,13.984375 h -0.24804 c -1.40258,-5.032771 -2.90101,-9.734687 -4.4961,-14.107422 L 268.7168,50.796875 Z m 86.33984,0 -21.9043,55.195315 h 10.76563 l 5.40429,-14.066409 h 20.79102 l 5.4043,14.066409 H 372.0957 L 350.18945,50.796875 Z m 29.08203,0 v 8.457031 h 17.82227 v 46.738284 h 10.10546 V 59.253906 h 17.78125 v -8.457031 z m 53.54687,0 v 55.195315 h 37.25 V 97.535156 H 433.68359 V 81.982422 h 22.0293 v -8.457031 h -22.0293 V 59.253906 h 25.66016 v -8.457031 z m -112.37109,0.06055 -10.10742,29.86914 v 25.265625 h 10.10742 z m 34.32227,13.222656 h 0.16406 c 1.9251,5.747809 3.64367,10.573306 5.15625,14.478516 l 1.89844,4.910156 h -14.27344 l 1.89648,-4.910156 c 1.51259,-3.877709 3.2331,-8.703206 5.15821,-14.478516 z"
         transform="scale(0.26458333)" />
      <path
         id="text148-5-5-0"
         style="font-style:normal;font-variant:normal;font-weight:bold;font-stretch:normal;font-size:22.3532px;line-height:1.25;font-family:Corbel;-inkscape-font-specification:'Corbel, Bold';font-variant-ligatures:normal;font-variant-caps:normal;font-variant-numeric:normal;font-variant-east-asian:normal;fill:#008f97;fill-opacity:1;stroke:none;stroke-width:2.11211"
         d="M 161.48438,50.525391 V 105.7207 H 171.5918 V 50.525391 Z m 23.30859,0 V 105.7207 h 10.10547 V 77.710938 c 0,-4.400237 -0.16413,-9.144649 -0.49414,-14.232422 h 0.37109 c 0.46753,1.567584 1.01786,3.326692 1.65039,5.279296 0.63254,1.952605 1.29098,3.877789 1.97852,5.775391 l 11.42773,31.187497 h 6.51758 l 11.42773,-31.187497 c 0.0509,-0.140369 0.0998,-0.283158 0.15039,-0.423828 l 2.07032,-6.121094 c 0.51979,-1.620049 1.00882,-3.170674 1.4082,-4.509765 h 0.11719 l 4.38476,-12.953125 h -8.70898 l -9.5293,26.40039 c -1.78759,4.977768 -3.28603,9.639142 -4.49609,13.984375 h -0.24805 c -1.40257,-5.03277 -2.90101,-9.734687 -4.49609,-14.107422 l -9.5293,-26.277343 z m 56.59765,0.546875 -10.10742,29.86914 V 105.7207 h 10.10742 z"
         transform="scale(0.26458333)" />
      <path
         id="path2269"
         style="fill:#00de59;fill-opacity:1;stroke:#00de59;stroke-width:0.15942;stroke-linejoin:round;stroke-opacity:1"
         d="M 8.4974681,17.385571 18.806615,11.247103 17.53655,21.308735 Z"
         sodipodi:nodetypes="cccc" />
      <path
         id="path3240"
         style="fill:#00aa44;fill-opacity:1;stroke:#00aa44;stroke-width:0.185917;stroke-linejoin:round;stroke-opacity:1"
         d="m 8.1892755,18.22827 6.5983235,9.739665 2.471521,-5.836392 z"
         sodipodi:nodetypes="cccc" />
      <path
         id="path3244"
         style="fill:#00666b;fill-opacity:1;stroke:#00666b;stroke-width:0.185916;stroke-linejoin:round;stroke-opacity:1"
         d="m 25.035391,22.484408 -9.335348,5.765737 2.414186,-5.829477 z"
         sodipodi:nodetypes="cccc" />
      <path
         id="path3242"
         style="fill:#008f97;fill-opacity:1;stroke:#008f97;stroke-width:0.156324;stroke-linejoin:round;stroke-opacity:1"
         d="M 24.844974,21.635015 19.71311,11.521545 18.402994,21.545032 Z"
         sodipodi:nodetypes="cccc" />
    </g>
  </g>
</svg>
