<svg id="Layer_1" data-name="Layer 1" xmlns="http://www.w3.org/2000/svg" viewBox="0 0 414.43 329.24"><defs><style>.cls-1{fill:#fff;}.cls-1,.cls-2{stroke:#333;}.cls-1,.cls-2,.cls-3{stroke-miterlimit:10;stroke-width:2px;}.cls-2,.cls-3{fill:none;}.cls-3{stroke:#ff671f;}.cls-4{font-size:72px;fill:#333;font-family:Lato-Light, Lato;font-weight:300;letter-spacing:0.2em;}.cls-5,.cls-6,.cls-7{fill:#ff671f;}.cls-5{letter-spacing:0.2em;}.cls-6{letter-spacing:0.13em;}.cls-7{letter-spacing:0.2em;}</style></defs><line class="cls-1" x1="187.77" y1="181.33" x2="166.67" y2="169.96"/><line class="cls-1" x1="241.03" y1="46.52" x2="218.91" y2="34.55"/><rect class="cls-2" x="185.79" y="1" width="34.74" height="34.74" rx="4"/><rect class="cls-3" x="240.34" y="45.16" width="34.74" height="34.74" rx="4"/><rect class="cls-2" x="132.74" y="45.37" width="34.74" height="34.74" rx="4"/><rect class="cls-2" x="186.44" y="90.58" width="34.74" height="34.74" rx="4"/><rect class="cls-2" x="186.33" y="179.97" width="34.74" height="34.74" rx="4"/><rect class="cls-2" x="240.99" y="136.01" width="34.74" height="34.74" rx="4"/><rect class="cls-3" x="133.38" y="136.22" width="34.74" height="34.74" rx="4"/><line class="cls-1" x1="186.3" y1="34.88" x2="166.24" y2="45.86"/><text class="cls-4" transform="translate(0 309.38)">SIM<tspan class="cls-5" x="165.85" y="0">M</tspan><tspan class="cls-6" x="245.63" y="0">A</tspan><tspan class="cls-7" x="302.18" y="0">TE</tspan></text><line class="cls-1" x1="187.73" y1="91.31" x2="165.61" y2="79.35"/><line class="cls-1" x1="242.29" y1="136.56" x2="220.17" y2="124.59"/><line class="cls-1" x1="220.41" y1="180.96" x2="241.51" y2="169.59"/></svg>