<?xml version="1.0" encoding="UTF-8" standalone="no"?>
<svg
   width="60"
   height="60"
   version="1.1"
   id="svg21"
   sodipodi:docname="digitalocean-icon.svg"
   inkscape:version="1.1.1 (3bf5ae0d25, 2021-09-20)"
   xmlns:inkscape="http://www.inkscape.org/namespaces/inkscape"
   xmlns:sodipodi="http://sodipodi.sourceforge.net/DTD/sodipodi-0.dtd"
   xmlns="http://www.w3.org/2000/svg"
   xmlns:svg="http://www.w3.org/2000/svg">
  <sodipodi:namedview
     id="namedview23"
     pagecolor="#ffffff"
     bordercolor="#666666"
     borderopacity="1.0"
     inkscape:pageshadow="2"
     inkscape:pageopacity="0.0"
     inkscape:pagecheckerboard="0"
     showgrid="false"
     inkscape:zoom="3.3481013"
     inkscape:cx="157.85066"
     inkscape:cy="30.017013"
     inkscape:window-width="2560"
     inkscape:window-height="1377"
     inkscape:window-x="-8"
     inkscape:window-y="-8"
     inkscape:window-maximized="1"
     inkscape:current-layer="svg21" />
  <g
     transform="matrix(0.494102,0,0,0.494102,4.2818864,4.5522026)"
     fill="#0080ff"
     id="g16">
    <path
       d="M 52.1,102.1 V 82.5 C 72.9,82.5 88.9,61.9 81,40.1 78,32 71.6,25.5 63.5,22.6 41.7,14.7 21.1,30.7 21.1,51.5 H 1.5 c 0,-33.1 32,-58.9 66.7,-48.1 15.2,4.7 27.2,16.8 31.9,31.9 10.8,34.8 -14.9,66.8 -48,66.8 z"
       id="path2" />
    <path
       d="M 32.6,63 H 52.1 V 82.5 H 32.6 Z m -15,34.5 v -15 h 15 v 15 z M 5,70 H 17.6 V 82.5 H 5 Z"
       fill-rule="evenodd"
       id="path4" />
  </g>
  <defs
     id="defs19">
    <path
       id="A"
       d="m 204.3,23.4 c -1.8,0 -3.3,0.6 -4.5,1.8 -1.2,1.2 -1.9,2.7 -1.9,4.4 0,1.8 0.6,3.3 1.9,4.5 1.2,1.2 2.7,1.9 4.5,1.9 1.8,0 3.3,-0.6 4.5,-1.9 1.2,-1.2 1.9,-2.8 1.9,-4.5 0,-1.8 -0.6,-3.3 -1.9,-4.4 -1.2,-1.2 -2.8,-1.8 -4.5,-1.8 z" />
  </defs>
</svg>
